<svg width="486" height="163" viewBox="0 0 486 163" fill="none" xmlns="http://www.w3.org/2000/svg">
<path d="M406.672 75.5471C392.013 75.5471 380.086 65.6952 380.086 53.5854V22.3396C380.086 10.2298 392.013 0.37793 406.672 0.37793H455.681C470.341 0.37793 482.267 10.2298 482.267 22.3396V53.5854C482.267 65.6952 470.341 75.5471 455.681 75.5471H406.672ZM402.117 18.4443C401.814 18.4443 401.567 18.6904 401.567 18.9928V56.8868C401.567 57.1896 401.814 57.4357 402.117 57.4357H459.899C460.202 57.4357 460.448 57.1896 460.448 56.8868V18.9928C460.448 18.6904 460.202 18.4443 459.899 18.4443H402.117Z" fill="black"/>
<path d="M251.323 75.5476H190.257C175.597 75.5476 163.671 65.6958 163.671 53.586V22.3293C163.671 10.2195 175.597 0.367683 190.257 0.379822H251.02L251.462 0.378906C252.392 0.378906 253.146 1.13287 253.146 2.06294L253.146 2.12886V16.7645C253.146 17.6946 252.392 18.4486 251.462 18.4486L251.32 18.4477L185.789 18.4487C185.437 18.4487 185.15 18.7354 185.15 19.0877V56.7971C185.15 57.1495 185.437 57.4361 185.789 57.4361L251.262 57.4369L251.462 57.4374C252.392 57.4374 253.146 58.1913 253.146 59.1214L253.146 59.1527L253.139 73.8503L253.14 73.864C253.14 74.7941 252.392 75.548 251.462 75.548L251.323 75.5476Z" fill="black"/>
<path d="M360.629 75.5476H299.563C284.903 75.5476 272.977 65.6958 272.977 53.586V22.3293C272.977 10.2195 284.903 0.367683 299.563 0.379822H360.326L360.768 0.378906C361.698 0.378906 362.452 1.13287 362.452 2.06294L362.452 2.12886V16.7645C362.452 17.6946 361.698 18.4486 360.768 18.4486L360.627 18.4477L295.095 18.4487C294.743 18.4487 294.456 18.7354 294.456 19.0877V56.7971C294.456 57.1495 294.743 57.4361 295.095 57.4361L360.568 57.4369L360.768 57.4374C361.698 57.4374 362.452 58.1913 362.452 59.1214L362.452 59.1527L362.445 73.8503L362.447 73.864C362.447 74.7941 361.698 75.548 360.768 75.548L360.629 75.5476Z" fill="black"/>
<path d="M251.638 46.3727H197.012C196.466 46.3727 196.02 45.9262 196.02 45.3806V30.6943C196.02 30.1486 196.466 29.7021 197.012 29.7021H251.638C252.184 29.7021 252.63 30.1486 252.63 30.6943V45.3806C252.63 45.9262 252.184 46.3727 251.638 46.3727Z" fill="#1554FF"/>
<path d="M94.4434 78.3667C86.0255 78.3667 78.3709 74.5384 74.4666 68.3758L74.2406 67.9977L36.1937 2.60919C35.9408 2.15807 35.9458 1.63462 36.2014 1.19857C36.4974 0.693199 37.0802 0.379395 37.7215 0.379395H57.7974C58.4521 0.379395 59.0395 0.702248 59.3309 1.22202L93.6955 60.0417C93.7675 60.1264 93.9825 60.3137 94.4752 60.3241C95.0382 60.32 95.1959 60.0615 95.2719 59.9372L132.575 1.16508C132.868 0.684494 133.445 0.379395 134.075 0.379395H154.464C155.118 0.379395 155.706 0.702248 155.998 1.22202C156.25 1.67113 156.24 2.20329 155.971 2.6457L114.591 68.116C110.778 74.3787 103.127 78.3098 94.6296 78.3661L94.4434 78.3667Z" fill="black"/>
<path d="M20.3609 75.5466H2.06193C1.13573 75.5466 0.37793 74.7888 0.37793 73.8626V2.0629C0.37793 1.1367 1.13573 0.378906 2.06193 0.378906H20.3609C21.2871 0.378906 22.0449 1.1367 22.0449 2.0629V73.8626C22.0449 74.7888 21.2871 75.5466 20.3609 75.5466Z" fill="black"/>
<path d="M306.48 162.084H254.645C253.961 162.084 253.429 161.628 253.429 160.869V110.098C253.429 109.414 253.961 108.881 254.645 108.881H305.416C316.512 108.881 323.125 114.506 323.125 123.323C323.125 128.718 320.389 132.595 316.588 134.875V135.407C321.3 137.839 324.265 141.868 324.265 147.644C324.265 157.676 316.665 162.084 306.48 162.084ZM269.162 129.707H306.404C306.632 129.707 306.784 129.555 306.784 129.327V121.119C306.784 120.89 306.632 120.738 306.404 120.738H269.162C268.934 120.738 268.706 120.89 268.706 121.119V129.327C268.706 129.555 268.934 129.707 269.162 129.707ZM269.162 150.304H306.404C306.632 150.304 306.784 150.152 306.784 149.923V141.715C306.784 141.488 306.632 141.335 306.404 141.335H269.162C268.934 141.335 268.706 141.488 268.706 141.715V149.923C268.706 150.152 268.934 150.304 269.162 150.304Z" fill="black"/>
<path d="M383.999 162.084H358.841C345.768 162.084 338.7 154.484 338.7 143.843V110.098C338.7 109.414 339.232 108.881 339.917 108.881H352.836C353.521 108.881 354.053 109.414 354.053 110.098V148.86C354.053 149.087 354.205 149.24 354.433 149.24H388.407C388.635 149.24 388.863 149.087 388.863 148.86V110.098C388.863 109.414 389.319 108.881 390.079 108.881H402.923C403.608 108.881 404.139 109.414 404.139 110.098V143.843C404.139 154.484 397.071 162.084 383.999 162.084Z" fill="black"/>
<path d="M418.576 126.895V123.398C418.576 114.05 425.948 108.881 436.285 108.881H481.051C481.811 108.881 482.267 109.414 482.267 110.098V120.51C482.267 121.194 481.811 121.726 481.051 121.726H434.232C434.004 121.726 433.852 121.878 433.852 122.106V129.174C433.852 129.403 434.004 129.555 434.232 129.555H468.054C478.391 129.555 485.839 134.723 485.839 144.072V147.644C485.839 156.917 478.391 162.084 468.054 162.084H421.692C420.931 162.084 420.476 161.552 420.476 160.869V150.456C420.476 149.772 420.931 149.24 421.692 149.24H470.106C470.334 149.24 470.486 149.087 470.486 148.86V141.792C470.486 141.563 470.334 141.412 470.106 141.412H436.285C425.948 141.412 418.576 136.243 418.576 126.895Z" fill="black"/>
</svg>
